<svg xmlns="http://www.w3.org/2000/svg" viewBox="0 0 495 396"><title>Artboard 1</title><path d="M411.94,259.47h0a2.15,2.15,0,0,0,1.22-.19,4.55,4.55,0,0,1,2.26-.37,3.08,3.08,0,0,1,2.12,1.17l.34.44a2.69,2.69,0,0,0,1.77,1,2.15,2.15,0,0,0,1.88-.77,3.84,3.84,0,0,0,0-4.51l-.42-.56c-1.49-2.14-.32-5.33-.31-5.36a3.84,3.84,0,0,0,.22-1.52c-.61-11.6-3.89-20.62-9.77-26.83-10-10.53-23.12-8.63-23.77-8.54a2.6,2.6,0,0,0-2,2.39c-.1.69-2.34,17.11,5.46,29.92C395.57,253.43,402.65,258,411.94,259.47ZM397.28,229.9a1.24,1.24,0,0,1,2-.13,159.88,159.88,0,0,1,21.14,27.91,2,2,0,0,1-.28,2.49,1.17,1.17,0,0,1-1.4.08,1.81,1.81,0,0,1-.63-.66,158.5,158.5,0,0,0-20.57-27.14A2.16,2.16,0,0,1,397.28,229.9Zm30.86-100.06c.47.29,3.68,2.33,3.82,5.93,0,.14,0,.43,0,.73a4.18,4.18,0,0,0,1.85,3.45,2.66,2.66,0,0,0,1,.37c1.57.18,2.84-1.19,2.9-3.12,0-.29,0-.58,0-.86.15-3.59,3.64-4.82,3.79-4.87a2.54,2.54,0,0,0,1.16-.83c7.66-9.6,11-20.12,10-31.28-1.77-18.81-15.49-32.19-16.07-32.76a2.53,2.53,0,0,0-3.26-.39c-.58.42-14.33,10.53-16.17,28.92-1.09,10.9,2.22,22.22,9.85,33.63A2.9,2.9,0,0,0,428.14,129.83Zm6.14-45.34a1.9,1.9,0,0,1,1.46,2l.51,50.5c0,1-.63,1.73-1.44,1.65a1.28,1.28,0,0,1-.54-.18,2.08,2.08,0,0,1-.92-1.76l-.51-50.5C432.84,85.15,433.47,84.41,434.28,84.49Zm-14.1,80.79a1.62,1.62,0,0,0,1.27-.45,5.43,5.43,0,0,1,2.49-.91,3.33,3.33,0,0,1,2.62.92c.07.08.25.27.45.44a2.57,2.57,0,0,0,1.94.75,2.23,2.23,0,0,0,.58-.13c-3.75-4.08-16.51-17.73-29.64-29.6a2.19,2.19,0,0,1-.45-2.54,1.23,1.23,0,0,1,2-.32c13.19,11.93,26,25.63,29.83,29.79a4.21,4.21,0,0,0-1.06-3.18c-.16-.18-.34-.36-.52-.53-2-2.21-1.17-6.09-1.14-6.26a4.18,4.18,0,0,0,0-1.66c-2.25-12.92-7-22.36-14.26-28.07a28.63,28.63,0,0,0-20.2-5.91,30,30,0,0,0-6.91,1.29,3.06,3.06,0,0,0-1.81,2.94c0,.79-.26,19.69,10,32.46C401.46,161.88,409.8,165.57,420.18,165.28ZM424.83,200c-1.31-12.33-5.25-21.66-11.7-27.72-11-10.37-24.77-7.28-25.45-7.12a2.76,2.76,0,0,0-2,2.63c-.07.74-1.57,18.37,7.33,31.38,5.27,7.71,13,12,22.83,12.82a2,2,0,0,0,1.26-.29,5,5,0,0,1,2.4-.59,3.27,3.27,0,0,1,2.36,1.1c.05.08.21.26.38.45a2.65,2.65,0,0,0,1.85.93,2.22,2.22,0,0,0,1.88-.95,4,4,0,0,0-.22-4.66c-.15-.19-.31-.38-.48-.56-1.72-2.21-.68-5.69-.63-5.83A4.06,4.06,0,0,0,424.83,200Zm.31,9.24a2.05,2.05,0,0,1-.24,2.5,1.19,1.19,0,0,1-1.42.1,1.78,1.78,0,0,1-.61-.63c-.12-.19-11.79-19.73-27-30.84a2.18,2.18,0,0,1-.66-2.49,1.24,1.24,0,0,1,1.94-.59C413,188.84,424.65,208.42,425.14,209.24Zm-31.78,93.14a1.92,1.92,0,0,0,1.22.39,4.76,4.76,0,0,1,2.09.65,3.6,3.6,0,0,1,1.55,1.83c0,.08.1.3.19.53a3.34,3.34,0,0,0,1.35,1.68,2.09,2.09,0,0,0,2,.16,3.18,3.18,0,0,0,1.3-3.93c-.07-.22-.15-.44-.23-.65-.73-2.34,1.11-4.43,1.19-4.51a2.87,2.87,0,0,0,.64-1.22c2.65-10.06,2.17-19.08-1.42-26.81a34,34,0,0,0-13.47-14.7,30.12,30.12,0,0,0-5.73-2.74,2.15,2.15,0,0,0-2.6,1.17c-.28.54-6.86,13.39-3.34,27.56C380.18,290.2,385.32,297.13,393.36,302.39Zm-5.26-29.53a1.35,1.35,0,0,1,2,.6c7.61,13.49,11.73,30,11.9,30.72a1.71,1.71,0,0,1-.95,2.14,1.21,1.21,0,0,1-1-.15,2,2,0,0,1-.86-1.24c0-.17-4.14-16.62-11.46-29.59A2,2,0,0,1,388.1,272.86Zm28.7,59.25c-6.17-.55-11.84,2.66-16.84,9.55a2.94,2.94,0,0,0-.51,1.23c0,.11-.51,2.74-2.09,2.94a4.61,4.61,0,0,0-.5,0c-1.29.14-2.15,1.53-2,3.15a3.67,3.67,0,0,0,1,2.13,2.31,2.31,0,0,0,1.68.75,2.42,2.42,0,0,0,.39,0c1.33,0,2.72,2.36,2.82,2.59a3.5,3.5,0,0,0,.78,1.19h0c6.49,6.17,12.81,8.65,18.77,7.36,10.06-2.18,15.12-14.29,15.33-14.8a3.67,3.67,0,0,0-.38-3.4C434.9,344.28,427.33,333,416.8,332.11Zm5,17.56c-9.15-1.62-23.74,1-23.89,1.05a1.3,1.3,0,0,1-.86-.18,2,2,0,0,1-.88-1.36,1.65,1.65,0,0,1,1.07-2.05c.61-.11,15.14-2.73,24.71-1a2,2,0,0,1,1.38,2C423.31,349.13,422.63,349.81,421.83,349.67Zm-45.55-13h0a2.18,2.18,0,0,0,1.17.36c.21,0,2.45.54,3.06,2.07,0,.07.09.27.17.47a3.22,3.22,0,0,0,1.29,1.6,2,2,0,0,0,1.89.15,3,3,0,0,0,1.24-3.73c-.07-.21-.14-.4-.21-.59a4.36,4.36,0,0,1,1-3.78,2.78,2.78,0,0,0,.61-1.16c2.36-9,1.93-17-1.28-24a30.52,30.52,0,0,0-17.13-15.58,2,2,0,0,0-2.48,1.12c-.25.48-6.13,11.93-3,24.61C364.52,325.75,369.11,331.94,376.28,336.64ZM374,314.69a1.43,1.43,0,0,1,2,.9c5.05,11.62,7.86,19.41,7.73,21.38-.07,1-.77,1.75-1.57,1.57a1.67,1.67,0,0,1-.46-.18,1.93,1.93,0,0,1-.87-1.81c0-.13-.38-3.42-7.36-19.48A1.9,1.9,0,0,1,374,314.69ZM475.27,242c-.6-.43-12.69-9.1-24.19-4.33-6.77,2.81-11.65,9.65-14.48,20.32a3.83,3.83,0,0,0-.08,1.55s.49,3.67-1.34,4.92c-.17.1-.34.2-.51.32a3.51,3.51,0,0,0-.87,4.28,3.31,3.31,0,0,0,1.63,1.72,2.12,2.12,0,0,0,1.88-.07l.4-.24a2.48,2.48,0,0,1,2.24,0A6.57,6.57,0,0,1,442,272a3,3,0,0,0,1.12.81h0c9.08,3.5,16.69,2.83,22.59-2,9.88-8.07,11-24.8,11-25.51A3.88,3.88,0,0,0,475.27,242Zm-14.13,12.82c-10.52,4.32-23.91,14-24,14.12a1.19,1.19,0,0,1-1.35,0,1.8,1.8,0,0,1-.67-.74,2,2,0,0,1,.39-2.45c.56-.41,13.75-10,24.54-14.39a1.52,1.52,0,0,1,1.9,1.18A1.8,1.8,0,0,1,461.14,254.83Zm1.6-70.5c-7.29,2.37-12.83,9.16-16.47,20.16a4,4,0,0,0-.18,1.59c0,.16.33,4-1.74,5.19-.19.09-.37.18-.56.29a3.79,3.79,0,0,0,.48,6.18,2.2,2.2,0,0,0,1.94.08c.2-.1.39-.18.45-.22a2.75,2.75,0,0,1,2.46.19,7.44,7.44,0,0,1,2.16,1.81,2.89,2.89,0,0,0,1.13.93c9.52,4.4,17.64,4.33,24.14-.22,11-7.68,13-25.18,13.05-25.92a4,4,0,0,0-1.35-3.52C487.64,190.38,475.22,180.27,462.75,184.33Zm14,16.65c-8.64.07-31,15.23-31.22,15.38a1.18,1.18,0,0,1-1.31,0,1.85,1.85,0,0,1-.69-.78,2,2,0,0,1,.43-2.44c.94-.64,23.17-15.71,32.5-15.78a1.8,1.8,0,0,1,1.58,1.79A1.52,1.52,0,0,1,476.74,201Zm15.19-57.15a42.83,42.83,0,0,0-6.29-4.83c-4.95-3.15-12.49-6.57-20.3-5s-14.33,8.1-19,19.16a4,4,0,0,0-.29,1.59c0,.17,0,4.3-2.3,5.33l-.6.23c-1.37.59-2,2.44-1.47,4.24a3.75,3.75,0,0,0,1.51,2.08,2.35,2.35,0,0,0,2,.31l.5-.19a3.1,3.1,0,0,1,2.66.5,8.25,8.25,0,0,1,2.18,2.16,2.46,2.46,0,0,0,1.12,1.09c9.78,5.7,18.4,6.56,25.62,2.56,12.19-6.76,15.63-24.79,15.78-25.55A4.27,4.27,0,0,0,491.93,143.83Zm-14.47,9.84c-6.92,1.16-33,11.73-33.26,11.84a1.19,1.19,0,0,1-1.09-.11,1.93,1.93,0,0,1-.81-1.07,1.8,1.8,0,0,1,.77-2.27c1.08-.44,26.57-10.77,33.73-12a1.7,1.7,0,0,1,1.74,1.56A1.64,1.64,0,0,1,477.46,153.67Zm-25,139.1c-4.2-2.52-10.57-5.19-17.08-3.63s-11.88,7.18-15.58,16.61a3.62,3.62,0,0,0-.23,1.46c0,.13.1,3.39-1.66,4.24a3.76,3.76,0,0,0-.51.22,3.19,3.19,0,0,0-1.27,3.95,3.39,3.39,0,0,0,1.42,1.88,2.14,2.14,0,0,0,1.83.22,3.92,3.92,0,0,0,.41-.17,2.33,2.33,0,0,1,2,.32,6.5,6.5,0,0,1,1.76,1.66,2.62,2.62,0,0,0,1,1c8.28,4.53,15.52,5,21.51,1.46,10.1-6,12.68-21.26,12.78-21.9a3.9,3.9,0,0,0-1.11-3.4A34.19,34.19,0,0,0,452.49,292.76Zm-8.8,14.69c-3.79.32-17,5.77-23.46,8.61a1.22,1.22,0,0,1-1.12-.1,1.93,1.93,0,0,1-.8-1,1.83,1.83,0,0,1,.73-2.29c.78-.34,19.07-8.35,24.19-8.79a1.75,1.75,0,0,1,1.67,1.68A1.58,1.58,0,0,1,443.69,307.46Zm-58.18,76.48c-18.65,9.7-31.92-.85-33.87-2.54,2.82-2,5.58-4,8.23-6.13l.19-.16a185.18,185.18,0,0,0,40.64-45c.08,0,.16,0,.24,0a3.31,3.31,0,0,0,1.55-.39c.09,0,9.17-4.75,17.79-.24a3.31,3.31,0,0,0,3.08-5.87,25.26,25.26,0,0,0-17.49-2,212.78,212.78,0,0,0,13.63-28.44l.25,0a3.31,3.31,0,0,0,2.87-3.71,27.72,27.72,0,0,0-.61-2.95,265.66,265.66,0,0,0,11.08-41.73,3.3,3.3,0,0,0,2-1.43c2-3.2,9-11.56,16.6-11.86a3.31,3.31,0,0,0-.26-6.62c-6.82.27-12.56,4.46-16.47,8.34a354.72,354.72,0,0,0,3.36-38.77l0,0a3.31,3.31,0,0,0,1-4.58c-.05-.08-.36-.55-.85-1.27.28-15.07-.28-29.79-1.39-43.75a1.81,1.81,0,0,0-1.58-1.8,1.52,1.52,0,0,0-1.3,1.81c1,12.75,1.55,26.14,1.41,39.85a53.93,53.93,0,0,0-9.79-10,3.31,3.31,0,0,0-3.91,5.35c6,4.38,11.8,13.29,11.86,13.38a3.29,3.29,0,0,0,1.63,1.28,345.11,345.11,0,0,1-4.09,42.58c-1.08,1.37-1.71,2.34-1.8,2.48a3.27,3.27,0,0,0,.64,4.22,264.34,264.34,0,0,1-9.74,37.56,48.59,48.59,0,0,0-6-11.08,3.31,3.31,0,0,0-5.37,3.88,39.47,39.47,0,0,1,7,16,3.24,3.24,0,0,0,.65,1.49,207.78,207.78,0,0,1-15.48,31.27c-1.07.43-1.74.78-1.85.84a3.29,3.29,0,0,0-1.38,4.33,182.6,182.6,0,0,1-35.72,40.53c1.63-6.92,2.91-19.48-2.91-35.19-8.3-22.36-6.78-39.64-6.76-39.82a2,2,0,0,0-1.27-2.15c-.79-.2-1.52.42-1.61,1.39-.07.74-1.66,18.43,7,41.82,7.51,20.25,2.23,35,1.25,37.44a195.14,195.14,0,0,1-29.59,19.24,2,2,0,0,0,.14,3.29,1.18,1.18,0,0,0,1.2.06,201.29,201.29,0,0,0,19.17-11.62,1.55,1.55,0,0,0,.23.32,33.11,33.11,0,0,0,21.06,7.64A36.19,36.19,0,0,0,387,386.88a1.66,1.66,0,1,0-1.53-2.94ZM432.26,57a1.66,1.66,0,0,0,1.66,1.61h0a1.66,1.66,0,0,0,1.61-1.7c0-.33-1-33.75-5.85-53.8a1.66,1.66,0,1,0-3.22.78C431.29,23.63,432.25,56.7,432.26,57Zm-9.35,7.08a1.66,1.66,0,0,0,1.61,1.71h.05a1.66,1.66,0,0,0,1.66-1.61c0-.89.62-21.86-1.79-33.82a1.66,1.66,0,0,0-3.25.66C423.51,42.63,422.91,63.9,422.9,64.11ZM441,63a1.66,1.66,0,0,0,1.61,1.71h0a1.66,1.66,0,0,0,1.66-1.61c0-.89.62-21.86-1.8-33.82a1.66,1.66,0,0,0-3.25.66C441.58,41.56,441,62.83,441,63Z" fill="#e6bc21"/><path d="M104.22,245.78c7.79-12.81,5.56-29.22,5.46-29.92a2.6,2.6,0,0,0-2-2.39c-.65-.09-13.8-2-23.77,8.54-5.88,6.21-9.16,15.23-9.77,26.83a3.83,3.83,0,0,0,.23,1.52s1.18,3.23-.31,5.36c-.14.18-.28.36-.42.56a3.83,3.83,0,0,0,0,4.51,2.15,2.15,0,0,0,1.88.77,2.69,2.69,0,0,0,1.77-1l.34-.44a3.08,3.08,0,0,1,2.12-1.17,4.54,4.54,0,0,1,2.25.37,2.16,2.16,0,0,0,1.22.19h0C92.49,258,99.56,253.43,104.22,245.78Zm-6.65-13.33A158.43,158.43,0,0,0,77,259.58a1.8,1.8,0,0,1-.63.66,1.17,1.17,0,0,1-1.4-.08,2,2,0,0,1-.28-2.49,159.81,159.81,0,0,1,21.14-27.91,1.24,1.24,0,0,1,2,.13A2.16,2.16,0,0,1,97.57,232.45ZM68.12,128.75C75.75,117.33,79.06,106,78,95.12,76.13,76.73,62.38,66.62,61.8,66.2a2.53,2.53,0,0,0-3.26.39c-.58.56-14.29,14-16.07,32.76-1,11.16,2.3,21.68,10,31.28a2.53,2.53,0,0,0,1.16.83c.15.05,3.64,1.28,3.79,4.87,0,.29,0,.57,0,.86.06,1.93,1.34,3.3,2.9,3.12a2.65,2.65,0,0,0,1-.37,4.19,4.19,0,0,0,1.85-3.45c0-.3,0-.59,0-.73.13-3.61,3.34-5.65,3.82-5.93A2.9,2.9,0,0,0,68.12,128.75ZM62.29,86.15l-.51,50.5a2.09,2.09,0,0,1-.92,1.76,1.27,1.27,0,0,1-.54.18c-.8.08-1.44-.66-1.44-1.65l.51-50.5a1.9,1.9,0,0,1,1.46-2C61.66,84.41,62.3,85.15,62.29,86.15Zm37.45,68.16c10.24-12.77,10-31.67,10-32.46a3.05,3.05,0,0,0-1.81-2.94,30,30,0,0,0-6.91-1.29,28.63,28.63,0,0,0-20.2,5.91c-7.21,5.71-12,15.16-14.26,28.07a4.21,4.21,0,0,0,0,1.66c0,.17.88,4.05-1.14,6.26-.18.17-.36.35-.52.53a4.21,4.21,0,0,0-1.06,3.18c3.84-4.17,16.64-17.86,29.83-29.79a1.23,1.23,0,0,1,2,.32,2.18,2.18,0,0,1-.45,2.54c-13.13,11.87-25.89,25.52-29.64,29.6a2.22,2.22,0,0,0,.58.13,2.57,2.57,0,0,0,1.94-.75c.19-.18.38-.36.45-.44a3.33,3.33,0,0,1,2.62-.92,5.43,5.43,0,0,1,2.49.91,1.62,1.62,0,0,0,1.27.45C85.34,165.57,93.67,161.88,99.74,154.31ZM70.46,201.6c0,.15,1.09,3.62-.63,5.83-.16.18-.32.37-.48.56a4,4,0,0,0-.22,4.66,2.22,2.22,0,0,0,1.88.95,2.65,2.65,0,0,0,1.85-.93c.17-.19.33-.37.38-.45a3.27,3.27,0,0,1,2.36-1.1,5,5,0,0,1,2.4.59,2,2,0,0,0,1.26.29c9.88-.8,17.56-5.11,22.83-12.82,8.9-13,7.4-30.65,7.33-31.38a2.76,2.76,0,0,0-2-2.63C106.78,165,93,161.91,82,172.28c-6.45,6.06-10.38,15.39-11.69,27.72A4,4,0,0,0,70.46,201.6ZM98,177.3a1.24,1.24,0,0,1,1.94.59,2.18,2.18,0,0,1-.66,2.49c-15.23,11.1-26.9,30.64-27,30.84a1.77,1.77,0,0,1-.61.63,1.19,1.19,0,0,1-1.42-.1,2.05,2.05,0,0,1-.24-2.5C70.48,208.42,82.17,188.84,98,177.3Zm19,104.5c3.52-14.17-3.06-27-3.34-27.56a2.15,2.15,0,0,0-2.6-1.17,30.06,30.06,0,0,0-5.73,2.74,34,34,0,0,0-13.47,14.7c-3.59,7.73-4.07,16.75-1.42,26.81a2.88,2.88,0,0,0,.64,1.22c.08.09,1.92,2.18,1.19,4.51-.08.22-.16.43-.23.65a3.18,3.18,0,0,0,1.3,3.93,2.09,2.09,0,0,0,2-.16,3.33,3.33,0,0,0,1.35-1.68,5.44,5.44,0,0,0,.19-.53,3.6,3.6,0,0,1,1.55-1.83,4.77,4.77,0,0,1,2.09-.65,1.92,1.92,0,0,0,1.22-.39C109.82,297.13,115,290.2,117,281.8Zm-9.72-6.45c-7.32,13-11.41,29.42-11.46,29.59a2,2,0,0,1-.86,1.24,1.21,1.21,0,0,1-1,.15,1.71,1.71,0,0,1-.95-2.14c.17-.7,4.29-17.23,11.9-30.72a1.35,1.35,0,0,1,2-.6A2,2,0,0,1,107.33,275.35ZM59.87,344.83a3.67,3.67,0,0,0-.38,3.4c.21.5,5.27,12.62,15.33,14.8,6,1.29,12.27-1.19,18.77-7.36h0a3.51,3.51,0,0,0,.78-1.19c.1-.23,1.49-2.59,2.82-2.59a2.4,2.4,0,0,0,.39,0,2.31,2.31,0,0,0,1.68-.75,3.65,3.65,0,0,0,1-2.13c.19-1.62-.68-3-2-3.15a4.59,4.59,0,0,0-.5,0c-1.58-.2-2.07-2.83-2.09-2.94a2.93,2.93,0,0,0-.51-1.23c-5-6.89-10.68-10.1-16.84-9.55C67.81,333,60.24,344.28,59.87,344.83Zm11.92,3.31a2,2,0,0,1,1.38-2c9.57-1.69,24.09.93,24.71,1a1.65,1.65,0,0,1,1.07,2.05,2,2,0,0,1-.88,1.36,1.3,1.3,0,0,1-.86.18c-.15,0-14.74-2.67-23.89-1.05C72.51,349.81,71.83,349.13,71.79,348.14Zm60.7-29.9c3.15-12.67-2.74-24.13-3-24.61a2,2,0,0,0-2.48-1.12,30.51,30.51,0,0,0-17.13,15.58c-3.21,6.91-3.64,15-1.28,24a2.79,2.79,0,0,0,.61,1.16,4.36,4.36,0,0,1,1,3.78c-.07.19-.14.38-.21.59a3,3,0,0,0,1.24,3.73,2,2,0,0,0,1.89-.15,3.21,3.21,0,0,0,1.29-1.6c.08-.21.15-.41.16-.47.61-1.53,2.85-2.05,3.06-2.07a2.18,2.18,0,0,0,1.17-.36h0C126,331.94,130.62,325.75,132.49,318.24Zm-10.85-1.16c-7,16.06-7.35,19.35-7.36,19.48a1.93,1.93,0,0,1-.87,1.81,1.65,1.65,0,0,1-.45.18c-.8.18-1.5-.59-1.57-1.57-.14-2,2.68-9.76,7.73-21.38a1.43,1.43,0,0,1,2-.9A1.9,1.9,0,0,1,121.64,317.07ZM18.39,245.34c0,.71,1.12,17.44,11,25.51,5.91,4.82,13.51,5.49,22.59,2h0a3,3,0,0,0,1.12-.81,6.59,6.59,0,0,1,2.07-1.53,2.48,2.48,0,0,1,2.24,0l.41.24a2.11,2.11,0,0,0,1.88.07,3.31,3.31,0,0,0,1.63-1.72,3.51,3.51,0,0,0-.87-4.28c-.17-.12-.34-.22-.5-.32-1.83-1.25-1.35-4.88-1.34-4.92a3.82,3.82,0,0,0-.08-1.55c-2.83-10.67-7.7-17.51-14.48-20.32-11.51-4.77-23.6,3.9-24.2,4.33A3.89,3.89,0,0,0,18.39,245.34Zm14.84,7.22a1.52,1.52,0,0,1,1.9-1.18c10.79,4.43,24,14,24.54,14.39a2,2,0,0,1,.39,2.45,1.81,1.81,0,0,1-.67.74A1.19,1.19,0,0,1,58,269c-.14-.1-13.52-9.8-24-14.12A1.8,1.8,0,0,1,33.23,252.57ZM6.88,190.88a4,4,0,0,0-1.35,3.52c.08.74,2.09,18.23,13.05,25.92,6.49,4.55,14.61,4.62,24.14.22a2.9,2.9,0,0,0,1.13-.93A7.42,7.42,0,0,1,46,217.79a2.75,2.75,0,0,1,2.45-.19c.07,0,.25.13.45.22a2.2,2.2,0,0,0,1.94-.08,3.79,3.79,0,0,0,.48-6.18c-.19-.11-.37-.2-.56-.29-2.07-1.19-1.75-5-1.74-5.19a4,4,0,0,0-.17-1.59c-3.64-11-9.19-17.79-16.47-20.16C19.92,180.27,7.5,190.38,6.88,190.88Zm10.22,8.28a1.79,1.79,0,0,1,1.58-1.79c9.33.08,31.55,15.14,32.49,15.78a2,2,0,0,1,.44,2.44,1.87,1.87,0,0,1-.69.78,1.18,1.18,0,0,1-1.31,0C49.39,216.21,27,201.05,18.4,201A1.52,1.52,0,0,1,17.1,199.16Zm-15-51.6c.14.76,3.58,18.79,15.78,25.55,7.22,4,15.84,3.14,25.62-2.56a2.46,2.46,0,0,0,1.12-1.09,8.25,8.25,0,0,1,2.18-2.16,3.1,3.1,0,0,1,2.66-.5l.5.19a2.35,2.35,0,0,0,2-.31,3.76,3.76,0,0,0,1.51-2.08c.55-1.8-.1-3.66-1.47-4.24l-.6-.23c-2.34-1-2.3-5.16-2.29-5.33a4,4,0,0,0-.29-1.59c-4.65-11.06-11-17.51-19-19.16s-15.35,1.8-20.3,5a42.91,42.91,0,0,0-6.29,4.83A4.27,4.27,0,0,0,2.07,147.56Zm14.52,4.07a1.69,1.69,0,0,1,1.74-1.56c7.16,1.21,32.65,11.54,33.73,12a1.81,1.81,0,0,1,.77,2.27A1.94,1.94,0,0,1,52,165.4a1.19,1.19,0,0,1-1.09.11c-.26-.11-26.34-10.68-33.25-11.84A1.64,1.64,0,0,1,16.59,151.64Zm20.72,145a3.9,3.9,0,0,0-1.12,3.4c.1.64,2.69,15.89,12.78,21.9,6,3.55,13.23,3.06,21.51-1.46a2.61,2.61,0,0,0,1-1,6.53,6.53,0,0,1,1.76-1.66,2.33,2.33,0,0,1,2-.32,3.91,3.91,0,0,0,.41.17,2.14,2.14,0,0,0,1.83-.22A3.39,3.39,0,0,0,79,315.61a3.19,3.19,0,0,0-1.27-3.95,3.8,3.8,0,0,0-.51-.22c-1.76-.85-1.66-4.1-1.66-4.24a3.62,3.62,0,0,0-.23-1.46c-3.71-9.43-9-15-15.58-16.61s-12.88,1.11-17.08,3.63A34.16,34.16,0,0,0,37.3,296.67Zm12.94,8.86a1.75,1.75,0,0,1,1.67-1.68c5.11.43,23.41,8.44,24.19,8.79a1.83,1.83,0,0,1,.73,2.29,1.92,1.92,0,0,1-.8,1,1.22,1.22,0,0,1-1.12.1c-6.46-2.84-19.67-8.28-23.46-8.61A1.58,1.58,0,0,1,50.24,305.53Zm57.15,79.12a1.66,1.66,0,0,0,.71,2.23,36.19,36.19,0,0,0,16.84,4.36A33.11,33.11,0,0,0,146,383.6a1.54,1.54,0,0,0,.23-.32,201.22,201.22,0,0,0,19.17,11.62,1.18,1.18,0,0,0,1.2-.06,2,2,0,0,0,.14-3.29,195.25,195.25,0,0,1-29.59-19.24c-1-2.4-6.26-17.19,1.25-37.44,8.69-23.39,7.1-41.08,7-41.82-.09-1-.81-1.59-1.61-1.39a2,2,0,0,0-1.27,2.15c0,.17,1.54,17.46-6.76,39.82-5.82,15.7-4.54,28.27-2.91,35.19a182.56,182.56,0,0,1-35.72-40.53,3.29,3.29,0,0,0-1.39-4.33c-.11-.06-.78-.41-1.85-.84a208,208,0,0,1-15.48-31.27,3.23,3.23,0,0,0,.64-1.49,39.48,39.48,0,0,1,7-16,3.31,3.31,0,1,0-5.37-3.88,48.62,48.62,0,0,0-6,11.08A264.5,264.5,0,0,1,65,244a3.27,3.27,0,0,0,.64-4.22c-.09-.15-.72-1.11-1.8-2.48a345,345,0,0,1-4.09-42.58,3.28,3.28,0,0,0,1.63-1.28c.06-.09,5.87-9,11.86-13.38a3.31,3.31,0,1,0-3.91-5.35,53.88,53.88,0,0,0-9.79,10c-.14-13.71.4-27.1,1.41-39.85a1.52,1.52,0,0,0-1.3-1.81,1.81,1.81,0,0,0-1.58,1.8c-1.11,14-1.67,28.68-1.39,43.75-.49.72-.8,1.18-.85,1.27a3.31,3.31,0,0,0,1,4.58l0,0a354.9,354.9,0,0,0,3.36,38.77c-3.91-3.87-9.65-8.07-16.47-8.34a3.31,3.31,0,0,0-.26,6.62c7.58.3,14.55,8.66,16.6,11.86a3.3,3.3,0,0,0,2,1.43,265.71,265.71,0,0,0,11.08,41.73,27.92,27.92,0,0,0-.61,2.95,3.31,3.31,0,0,0,2.87,3.71l.25,0a212.94,212.94,0,0,0,13.63,28.44,25.26,25.26,0,0,0-17.49,2,3.31,3.31,0,1,0,3.07,5.87c8.61-4.51,17.69.2,17.79.24a3.31,3.31,0,0,0,1.55.39c.08,0,.16,0,.24,0a185.19,185.19,0,0,0,40.64,45l.19.16c2.65,2.1,5.41,4.13,8.23,6.13-1.94,1.69-15.21,12.24-33.87,2.54A1.65,1.65,0,0,0,107.39,384.65ZM68.64,3.92a1.66,1.66,0,1,0-3.22-.78c-4.88,20.05-5.84,53.46-5.85,53.8a1.66,1.66,0,0,0,1.61,1.7h0A1.66,1.66,0,0,0,62.88,57C62.89,56.7,63.85,23.63,68.64,3.92ZM74,31a1.66,1.66,0,0,0-3.25-.66c-2.41,12-1.82,32.94-1.79,33.82a1.66,1.66,0,0,0,1.65,1.61h.05a1.66,1.66,0,0,0,1.61-1.71C72.23,63.9,71.62,42.63,74,31ZM55.9,30a1.66,1.66,0,0,0-3.25-.66c-2.41,12-1.82,32.94-1.8,33.82a1.66,1.66,0,0,0,1.66,1.61h.05A1.66,1.66,0,0,0,54.16,63C54.16,62.83,53.56,41.56,55.9,30Z" fill="#e6bc21"/><text transform="translate(140.23 304.77)" font-size="236.82" fill="#fff" font-family="TenPin, Ten Pin">2</text><text transform="translate(270.82 304.77)" font-size="236.82" fill="#fff" font-family="TenPin, Ten Pin">L</text></svg>